<svg width="20" height="21" viewBox="0 0 20 21" fill="none" xmlns="http://www.w3.org/2000/svg">
<path d="M0.620007 10.2824C0.619427 11.9854 1.0644 13.648 1.91026 15.1133L0.538818 20.1204L5.66318 18.7768C7.07504 19.5467 8.66458 19.9525 10.2823 19.9532H10.2865C15.6136 19.9532 19.9505 15.6177 19.9528 10.2899C19.9537 7.70769 18.949 5.27978 17.1241 3.45336C15.2989 1.62692 12.8721 0.6205 10.2865 0.619385C4.95816 0.619385 0.622237 4.95437 0.620007 10.2824ZM3.67146 14.8609L3.48012 14.5571C2.67582 13.2782 2.25128 11.8002 2.25184 10.2828C2.25362 5.85451 5.85763 2.25151 10.2893 2.25151C12.4354 2.25234 14.4524 3.08898 15.9695 4.60694C17.4865 6.12501 18.3212 8.1431 18.3206 10.2891C18.3187 14.7177 14.7146 18.321 10.2862 18.321H10.2831C8.8412 18.3201 7.4271 17.9331 6.19391 17.2013L5.90039 17.0273L2.8594 17.8246L3.67146 14.8609ZM10.2865 19.9532C10.2862 19.9532 10.2863 19.9532 10.2865 19.9532V19.9532Z" fill="#A6A6A6"/>
<path fill-rule="evenodd" clip-rule="evenodd" d="M7.86578 6.24209C7.68482 5.83985 7.49437 5.83182 7.32227 5.82474C7.18145 5.81872 7.02033 5.81911 6.85944 5.81911C6.69832 5.81911 6.43663 5.8796 6.21536 6.12128C5.99392 6.36301 5.36997 6.94727 5.36997 8.13558C5.36997 9.32394 6.23554 10.4722 6.35613 10.6335C6.47694 10.7945 8.02706 13.3111 10.4818 14.2792C12.5222 15.0837 12.9373 14.9237 13.3802 14.8834C13.823 14.8432 14.8092 14.2993 15.0104 13.7353C15.2117 13.1714 15.2117 12.6879 15.1514 12.587C15.091 12.4864 14.9299 12.4259 14.6884 12.3052C14.4468 12.1844 13.2594 11.6 13.038 11.5194C12.8166 11.4389 12.6556 11.3987 12.4945 11.6405C12.3335 11.882 11.8709 12.4259 11.7299 12.587C11.589 12.7484 11.4481 12.7686 11.2066 12.6478C10.965 12.5266 10.1871 12.2718 9.26427 11.4491C8.54621 10.8089 8.06152 10.0183 7.92058 9.77646C7.7797 9.53496 7.90553 9.40411 8.02662 9.28369C8.13516 9.17548 8.26824 9.00171 8.38905 8.86072C8.50952 8.71967 8.54978 8.61904 8.63028 8.45792C8.71084 8.29669 8.67053 8.15565 8.61021 8.03484C8.54978 7.91403 8.08053 6.7197 7.86578 6.24209Z" fill="#A6A6A6"/>
</svg>
