<svg width="16" height="17" viewBox="0 0 16 17" fill="none" xmlns="http://www.w3.org/2000/svg">
<path d="M0 17V14.2C0 13.65 0.141667 13.1333 0.425 12.65C0.708333 12.1667 1.1 11.8 1.6 11.55C2.45 11.1167 3.40833 10.75 4.475 10.45C5.54167 10.15 6.71667 10 8 10C9.28333 10 10.4583 10.15 11.525 10.45C12.5917 10.75 13.55 11.1167 14.4 11.55C14.9 11.8 15.2917 12.1667 15.575 12.65C15.8583 13.1333 16 13.65 16 14.2V17H0ZM8 9C6.9 9 5.95833 8.60833 5.175 7.825C4.39167 7.04167 4 6.1 4 5H3.75C3.6 5 3.47917 4.95417 3.3875 4.8625C3.29583 4.77083 3.25 4.65 3.25 4.5C3.25 4.35 3.29583 4.22917 3.3875 4.1375C3.47917 4.04583 3.6 4 3.75 4H4C4 3.25 4.18333 2.575 4.55 1.975C4.91667 1.375 5.4 0.9 6 0.55V1.5C6 1.65 6.04583 1.77083 6.1375 1.8625C6.22917 1.95417 6.35 2 6.5 2C6.65 2 6.77083 1.95417 6.8625 1.8625C6.95417 1.77083 7 1.65 7 1.5V0.15C7.15 0.1 7.30833 0.0625 7.475 0.0375C7.64167 0.0125 7.81667 0 8 0C8.18333 0 8.35833 0.0125 8.525 0.0375C8.69167 0.0625 8.85 0.1 9 0.15V1.5C9 1.65 9.04583 1.77083 9.1375 1.8625C9.22917 1.95417 9.35 2 9.5 2C9.65 2 9.77083 1.95417 9.8625 1.8625C9.95417 1.77083 10 1.65 10 1.5V0.55C10.6 0.9 11.0833 1.375 11.45 1.975C11.8167 2.575 12 3.25 12 4H12.25C12.4 4 12.5208 4.04583 12.6125 4.1375C12.7042 4.22917 12.75 4.35 12.75 4.5C12.75 4.65 12.7042 4.77083 12.6125 4.8625C12.5208 4.95417 12.4 5 12.25 5H12C12 6.1 11.6083 7.04167 10.825 7.825C10.0417 8.60833 9.1 9 8 9ZM8 7C8.55 7 9.02083 6.80417 9.4125 6.4125C9.80417 6.02083 10 5.55 10 5H6C6 5.55 6.19583 6.02083 6.5875 6.4125C6.97917 6.80417 7.45 7 8 7Z" fill="#A6A6A6"/>
</svg>
