<svg width="424" height="32" viewBox="0 0 424 32" fill="none" xmlns="http://www.w3.org/2000/svg">
<mask id="path-1-outside-1_415_605" maskUnits="userSpaceOnUse" x="143" y="4.3335" width="269" height="26" fill="black">
<rect fill="white" x="143" y="4.3335" width="269" height="26"/>
<path d="M163.947 23.9881H159.79L151.528 16.2829H147.194V23.9881H144V6.24595H147.194V13.799H151.477L159.334 6.24595H163.212L154.037 14.8382L163.947 23.9881Z"/>
<path d="M177.184 17.094C178.705 17.2461 179.837 17.5756 180.58 18.0825C181.324 18.5894 181.696 19.3413 181.696 20.3383C181.696 21.3859 181.239 22.2561 180.327 22.9489C179.431 23.6417 177.86 23.9881 175.613 23.9881H166.235V10.7068H175.207C177.252 10.7068 178.747 11.0194 179.693 11.6446C180.64 12.2529 181.113 13.0555 181.113 14.0525C181.113 15.7253 179.803 16.7391 177.184 17.094ZM169.276 12.8612V16.2829H174.827C176.99 16.2829 178.071 15.7084 178.071 14.5594C178.071 13.4273 176.931 12.8612 174.65 12.8612H169.276ZM175.131 21.8337C177.48 21.8337 178.654 21.2169 178.654 19.9834C178.654 19.3751 178.367 18.9189 177.792 18.6147C177.235 18.3106 176.289 18.1585 174.954 18.1585H169.276V21.8337H175.131Z"/>
<path d="M192.003 10.4027C194.453 10.4196 196.312 10.9011 197.579 11.8474C198.863 12.7936 199.505 14.1877 199.505 16.0295V23.9881H196.717V21.0479C195.382 23.2108 192.991 24.2922 189.544 24.2922C187.533 24.2922 186.03 23.9374 185.033 23.2277C184.036 22.518 183.537 21.5802 183.537 20.4143C183.537 19.147 184.137 18.1923 185.337 17.5502C186.553 16.9081 188.395 16.511 190.862 16.359L196.464 15.9788V15.4212C196.464 14.5594 196.092 13.8582 195.348 13.3175C194.605 12.7767 193.49 12.5064 192.003 12.5064C189.333 12.5064 187.787 13.233 187.364 14.6861H184.5C184.686 13.1992 185.463 12.1093 186.832 11.4165C188.201 10.7237 189.924 10.3858 192.003 10.4027ZM190.33 22.1885C192.222 22.1885 193.718 21.8252 194.816 21.0986C195.914 20.3721 196.464 19.4681 196.464 18.3866V17.7783L191.217 18.1078C188.108 18.3106 186.553 19.0287 186.553 20.2622C186.553 20.8367 186.866 21.3014 187.491 21.6562C188.116 22.0111 189.063 22.1885 190.33 22.1885Z"/>
<path d="M212.332 10.4027C214.664 10.4027 216.54 11.0194 217.959 12.2529C219.396 13.4864 220.114 15.1846 220.114 17.3474C220.114 19.5103 219.396 21.2085 217.959 22.442C216.54 23.6755 214.664 24.2922 212.332 24.2922C209.375 24.2922 207.263 23.346 205.996 21.4535V29.0572H202.955V10.7068H205.743V13.6469C206.925 11.4841 209.122 10.4027 212.332 10.4027ZM211.471 21.9604C213.194 21.9604 214.563 21.538 215.577 20.6931C216.591 19.8482 217.098 18.733 217.098 17.3474C217.098 15.9619 216.591 14.8467 215.577 14.0018C214.563 13.1569 213.194 12.7345 211.471 12.7345C209.73 12.7345 208.353 13.1569 207.339 14.0018C206.342 14.8467 205.844 15.9619 205.844 17.3474C205.844 18.733 206.342 19.8482 207.339 20.6931C208.353 21.538 209.73 21.9604 211.471 21.9604Z"/>
<path d="M220.789 13.2161V10.7068H236.478V13.2161H230.167V23.9881H227.126V13.2161H220.789Z"/>
<path d="M250.645 10.7068H255.106V23.9881H252.166V12.7091L243.219 23.9881H238.783V10.7068H241.698V21.9857L250.645 10.7068Z"/>
<path d="M268.056 10.4027C270.388 10.4027 272.263 11.0194 273.683 12.2529C275.119 13.4864 275.837 15.1846 275.837 17.3474C275.837 19.5103 275.119 21.2085 273.683 22.442C272.263 23.6755 270.388 24.2922 268.056 24.2922C265.099 24.2922 262.987 23.346 261.719 21.4535V29.0572H258.678V10.7068H261.466V13.6469C262.649 11.4841 264.845 10.4027 268.056 10.4027ZM267.194 21.9604C268.918 21.9604 270.286 21.538 271.3 20.6931C272.314 19.8482 272.821 18.733 272.821 17.3474C272.821 15.9619 272.314 14.8467 271.3 14.0018C270.286 13.1569 268.918 12.7345 267.194 12.7345C265.454 12.7345 264.077 13.1569 263.063 14.0018C262.066 14.8467 261.567 15.9619 261.567 17.3474C261.567 18.733 262.066 19.8482 263.063 20.6931C264.077 21.538 265.454 21.9604 267.194 21.9604Z"/>
<path d="M280.193 22.4673C278.605 21.2338 277.811 19.5272 277.811 17.3474C277.811 15.1677 278.605 13.4695 280.193 12.2529C281.799 11.0194 283.936 10.4027 286.606 10.4027C289.276 10.4027 291.405 11.0194 292.993 12.2529C294.598 13.4695 295.401 15.1677 295.401 17.3474C295.401 19.5272 294.598 21.2338 292.993 22.4673C291.405 23.6839 289.276 24.2922 286.606 24.2922C283.936 24.2922 281.799 23.6839 280.193 22.4673ZM282.373 14.0018C281.342 14.8467 280.827 15.9619 280.827 17.3474C280.827 18.733 281.342 19.8482 282.373 20.6931C283.404 21.538 284.815 21.9604 286.606 21.9604C288.38 21.9604 289.783 21.538 290.813 20.6931C291.861 19.8313 292.385 18.7161 292.385 17.3474C292.385 15.9788 291.861 14.872 290.813 14.0271C289.783 13.1654 288.38 12.7345 286.606 12.7345C284.815 12.7345 283.404 13.1569 282.373 14.0018Z"/>
<path d="M298.195 23.9881V10.7068H310.462V13.2161H301.236V23.9881H298.195Z"/>
<path d="M322.269 10.4027C324.601 10.4027 326.477 11.0194 327.896 12.2529C329.332 13.4864 330.05 15.1846 330.05 17.3474C330.05 19.5103 329.332 21.2085 327.896 22.442C326.477 23.6755 324.601 24.2922 322.269 24.2922C319.312 24.2922 317.2 23.346 315.933 21.4535V29.0572H312.891V10.7068H315.679V13.6469C316.862 11.4841 319.059 10.4027 322.269 10.4027ZM321.408 21.9604C323.131 21.9604 324.5 21.538 325.514 20.6931C326.527 19.8482 327.034 18.733 327.034 17.3474C327.034 15.9619 326.527 14.8467 325.514 14.0018C324.5 13.1569 323.131 12.7345 321.408 12.7345C319.667 12.7345 318.29 13.1569 317.276 14.0018C316.279 14.8467 315.781 15.9619 315.781 17.3474C315.781 18.733 316.279 19.8482 317.276 20.6931C318.29 21.538 319.667 21.9604 321.408 21.9604Z"/>
<path d="M340.392 10.4027C342.842 10.4196 344.701 10.9011 345.968 11.8474C347.252 12.7936 347.894 14.1877 347.894 16.0295V23.9881H345.106V21.0479C343.771 23.2108 341.38 24.2922 337.933 24.2922C335.923 24.2922 334.419 23.9374 333.422 23.2277C332.425 22.518 331.926 21.5802 331.926 20.4143C331.926 19.147 332.526 18.1923 333.726 17.5502C334.943 16.9081 336.784 16.511 339.251 16.359L344.853 15.9788V15.4212C344.853 14.5594 344.481 13.8582 343.738 13.3175C342.994 12.7767 341.879 12.5064 340.392 12.5064C337.722 12.5064 336.176 13.233 335.754 14.6861H332.89C333.075 13.1992 333.853 12.1093 335.221 11.4165C336.59 10.7237 338.314 10.3858 340.392 10.4027ZM338.719 22.1885C340.612 22.1885 342.107 21.8252 343.205 21.0986C344.304 20.3721 344.853 19.4681 344.853 18.3866V17.7783L339.606 18.1078C336.497 18.3106 334.943 19.0287 334.943 20.2622C334.943 20.8367 335.255 21.3014 335.88 21.6562C336.506 22.0111 337.452 22.1885 338.719 22.1885Z"/>
<path d="M364.27 10.4027C367.193 10.4027 369.432 11.011 370.987 12.2276C372.541 13.4442 373.319 15.1508 373.319 17.3474C373.319 19.5441 372.541 21.2507 370.987 22.4673C369.432 23.6839 367.193 24.2922 364.27 24.2922H363.434V29.0572H360.468V24.2922H359.607C356.683 24.2922 354.444 23.6839 352.89 22.4673C351.352 21.2507 350.583 19.5441 350.583 17.3474C350.583 15.1508 351.352 13.4442 352.89 12.2276C354.444 11.011 356.683 10.4027 359.607 10.4027H360.468V5.3335H363.434V10.4027H364.27ZM359.708 21.9604H360.468V12.7345H359.708C357.663 12.7345 356.126 13.14 355.095 13.9511C354.064 14.7453 353.549 15.8774 353.549 17.3474C353.549 18.8175 354.064 19.9581 355.095 20.7691C356.126 21.5633 357.663 21.9604 359.708 21.9604ZM364.169 21.9604C366.213 21.9604 367.751 21.5633 368.782 20.7691C369.812 19.9581 370.328 18.8175 370.328 17.3474C370.328 15.8774 369.812 14.7453 368.782 13.9511C367.751 13.14 366.213 12.7345 364.169 12.7345H363.434V21.9604H364.169Z"/>
<path d="M388.026 10.7068H392.487V23.9881H389.547V12.7091L380.599 23.9881H376.164V10.7068H379.079V21.9857L388.026 10.7068Z"/>
<path d="M410.81 10.7068V23.9881H407.768V19.071H403.105L398.694 23.9881H394.943L399.962 18.9442C397.038 18.5218 395.577 17.17 395.577 14.8889C395.577 12.1008 397.731 10.7068 402.04 10.7068H410.81ZM402.268 17.094H407.768V12.9119H402.268C399.835 12.9119 398.618 13.6132 398.618 15.0156C398.618 16.4012 399.835 17.094 402.268 17.094Z"/>
</mask>
<path d="M163.947 23.9881H159.79L151.528 16.2829H147.194V23.9881H144V6.24595H147.194V13.799H151.477L159.334 6.24595H163.212L154.037 14.8382L163.947 23.9881Z" fill="#3E4550"/>
<path d="M177.184 17.094C178.705 17.2461 179.837 17.5756 180.58 18.0825C181.324 18.5894 181.696 19.3413 181.696 20.3383C181.696 21.3859 181.239 22.2561 180.327 22.9489C179.431 23.6417 177.86 23.9881 175.613 23.9881H166.235V10.7068H175.207C177.252 10.7068 178.747 11.0194 179.693 11.6446C180.64 12.2529 181.113 13.0555 181.113 14.0525C181.113 15.7253 179.803 16.7391 177.184 17.094ZM169.276 12.8612V16.2829H174.827C176.99 16.2829 178.071 15.7084 178.071 14.5594C178.071 13.4273 176.931 12.8612 174.65 12.8612H169.276ZM175.131 21.8337C177.48 21.8337 178.654 21.2169 178.654 19.9834C178.654 19.3751 178.367 18.9189 177.792 18.6147C177.235 18.3106 176.289 18.1585 174.954 18.1585H169.276V21.8337H175.131Z" fill="#3E4550"/>
<path d="M192.003 10.4027C194.453 10.4196 196.312 10.9011 197.579 11.8474C198.863 12.7936 199.505 14.1877 199.505 16.0295V23.9881H196.717V21.0479C195.382 23.2108 192.991 24.2922 189.544 24.2922C187.533 24.2922 186.03 23.9374 185.033 23.2277C184.036 22.518 183.537 21.5802 183.537 20.4143C183.537 19.147 184.137 18.1923 185.337 17.5502C186.553 16.9081 188.395 16.511 190.862 16.359L196.464 15.9788V15.4212C196.464 14.5594 196.092 13.8582 195.348 13.3175C194.605 12.7767 193.49 12.5064 192.003 12.5064C189.333 12.5064 187.787 13.233 187.364 14.6861H184.5C184.686 13.1992 185.463 12.1093 186.832 11.4165C188.201 10.7237 189.924 10.3858 192.003 10.4027ZM190.33 22.1885C192.222 22.1885 193.718 21.8252 194.816 21.0986C195.914 20.3721 196.464 19.4681 196.464 18.3866V17.7783L191.217 18.1078C188.108 18.3106 186.553 19.0287 186.553 20.2622C186.553 20.8367 186.866 21.3014 187.491 21.6562C188.116 22.0111 189.063 22.1885 190.33 22.1885Z" fill="#3E4550"/>
<path d="M212.332 10.4027C214.664 10.4027 216.54 11.0194 217.959 12.2529C219.396 13.4864 220.114 15.1846 220.114 17.3474C220.114 19.5103 219.396 21.2085 217.959 22.442C216.54 23.6755 214.664 24.2922 212.332 24.2922C209.375 24.2922 207.263 23.346 205.996 21.4535V29.0572H202.955V10.7068H205.743V13.6469C206.925 11.4841 209.122 10.4027 212.332 10.4027ZM211.471 21.9604C213.194 21.9604 214.563 21.538 215.577 20.6931C216.591 19.8482 217.098 18.733 217.098 17.3474C217.098 15.9619 216.591 14.8467 215.577 14.0018C214.563 13.1569 213.194 12.7345 211.471 12.7345C209.73 12.7345 208.353 13.1569 207.339 14.0018C206.342 14.8467 205.844 15.9619 205.844 17.3474C205.844 18.733 206.342 19.8482 207.339 20.6931C208.353 21.538 209.73 21.9604 211.471 21.9604Z" fill="#3E4550"/>
<path d="M220.789 13.2161V10.7068H236.478V13.2161H230.167V23.9881H227.126V13.2161H220.789Z" fill="#3E4550"/>
<path d="M250.645 10.7068H255.106V23.9881H252.166V12.7091L243.219 23.9881H238.783V10.7068H241.698V21.9857L250.645 10.7068Z" fill="#3E4550"/>
<path d="M268.056 10.4027C270.388 10.4027 272.263 11.0194 273.683 12.2529C275.119 13.4864 275.837 15.1846 275.837 17.3474C275.837 19.5103 275.119 21.2085 273.683 22.442C272.263 23.6755 270.388 24.2922 268.056 24.2922C265.099 24.2922 262.987 23.346 261.719 21.4535V29.0572H258.678V10.7068H261.466V13.6469C262.649 11.4841 264.845 10.4027 268.056 10.4027ZM267.194 21.9604C268.918 21.9604 270.286 21.538 271.3 20.6931C272.314 19.8482 272.821 18.733 272.821 17.3474C272.821 15.9619 272.314 14.8467 271.3 14.0018C270.286 13.1569 268.918 12.7345 267.194 12.7345C265.454 12.7345 264.077 13.1569 263.063 14.0018C262.066 14.8467 261.567 15.9619 261.567 17.3474C261.567 18.733 262.066 19.8482 263.063 20.6931C264.077 21.538 265.454 21.9604 267.194 21.9604Z" fill="#3E4550"/>
<path d="M280.193 22.4673C278.605 21.2338 277.811 19.5272 277.811 17.3474C277.811 15.1677 278.605 13.4695 280.193 12.2529C281.799 11.0194 283.936 10.4027 286.606 10.4027C289.276 10.4027 291.405 11.0194 292.993 12.2529C294.598 13.4695 295.401 15.1677 295.401 17.3474C295.401 19.5272 294.598 21.2338 292.993 22.4673C291.405 23.6839 289.276 24.2922 286.606 24.2922C283.936 24.2922 281.799 23.6839 280.193 22.4673ZM282.373 14.0018C281.342 14.8467 280.827 15.9619 280.827 17.3474C280.827 18.733 281.342 19.8482 282.373 20.6931C283.404 21.538 284.815 21.9604 286.606 21.9604C288.38 21.9604 289.783 21.538 290.813 20.6931C291.861 19.8313 292.385 18.7161 292.385 17.3474C292.385 15.9788 291.861 14.872 290.813 14.0271C289.783 13.1654 288.38 12.7345 286.606 12.7345C284.815 12.7345 283.404 13.1569 282.373 14.0018Z" fill="#3E4550"/>
<path d="M298.195 23.9881V10.7068H310.462V13.2161H301.236V23.9881H298.195Z" fill="#3E4550"/>
<path d="M322.269 10.4027C324.601 10.4027 326.477 11.0194 327.896 12.2529C329.332 13.4864 330.05 15.1846 330.05 17.3474C330.05 19.5103 329.332 21.2085 327.896 22.442C326.477 23.6755 324.601 24.2922 322.269 24.2922C319.312 24.2922 317.2 23.346 315.933 21.4535V29.0572H312.891V10.7068H315.679V13.6469C316.862 11.4841 319.059 10.4027 322.269 10.4027ZM321.408 21.9604C323.131 21.9604 324.5 21.538 325.514 20.6931C326.527 19.8482 327.034 18.733 327.034 17.3474C327.034 15.9619 326.527 14.8467 325.514 14.0018C324.5 13.1569 323.131 12.7345 321.408 12.7345C319.667 12.7345 318.29 13.1569 317.276 14.0018C316.279 14.8467 315.781 15.9619 315.781 17.3474C315.781 18.733 316.279 19.8482 317.276 20.6931C318.29 21.538 319.667 21.9604 321.408 21.9604Z" fill="#3E4550"/>
<path d="M340.392 10.4027C342.842 10.4196 344.701 10.9011 345.968 11.8474C347.252 12.7936 347.894 14.1877 347.894 16.0295V23.9881H345.106V21.0479C343.771 23.2108 341.38 24.2922 337.933 24.2922C335.923 24.2922 334.419 23.9374 333.422 23.2277C332.425 22.518 331.926 21.5802 331.926 20.4143C331.926 19.147 332.526 18.1923 333.726 17.5502C334.943 16.9081 336.784 16.511 339.251 16.359L344.853 15.9788V15.4212C344.853 14.5594 344.481 13.8582 343.738 13.3175C342.994 12.7767 341.879 12.5064 340.392 12.5064C337.722 12.5064 336.176 13.233 335.754 14.6861H332.89C333.075 13.1992 333.853 12.1093 335.221 11.4165C336.59 10.7237 338.314 10.3858 340.392 10.4027ZM338.719 22.1885C340.612 22.1885 342.107 21.8252 343.205 21.0986C344.304 20.3721 344.853 19.4681 344.853 18.3866V17.7783L339.606 18.1078C336.497 18.3106 334.943 19.0287 334.943 20.2622C334.943 20.8367 335.255 21.3014 335.88 21.6562C336.506 22.0111 337.452 22.1885 338.719 22.1885Z" fill="#3E4550"/>
<path d="M364.27 10.4027C367.193 10.4027 369.432 11.011 370.987 12.2276C372.541 13.4442 373.319 15.1508 373.319 17.3474C373.319 19.5441 372.541 21.2507 370.987 22.4673C369.432 23.6839 367.193 24.2922 364.27 24.2922H363.434V29.0572H360.468V24.2922H359.607C356.683 24.2922 354.444 23.6839 352.89 22.4673C351.352 21.2507 350.583 19.5441 350.583 17.3474C350.583 15.1508 351.352 13.4442 352.89 12.2276C354.444 11.011 356.683 10.4027 359.607 10.4027H360.468V5.3335H363.434V10.4027H364.27ZM359.708 21.9604H360.468V12.7345H359.708C357.663 12.7345 356.126 13.14 355.095 13.9511C354.064 14.7453 353.549 15.8774 353.549 17.3474C353.549 18.8175 354.064 19.9581 355.095 20.7691C356.126 21.5633 357.663 21.9604 359.708 21.9604ZM364.169 21.9604C366.213 21.9604 367.751 21.5633 368.782 20.7691C369.812 19.9581 370.328 18.8175 370.328 17.3474C370.328 15.8774 369.812 14.7453 368.782 13.9511C367.751 13.14 366.213 12.7345 364.169 12.7345H363.434V21.9604H364.169Z" fill="#3E4550"/>
<path d="M388.026 10.7068H392.487V23.9881H389.547V12.7091L380.599 23.9881H376.164V10.7068H379.079V21.9857L388.026 10.7068Z" fill="#3E4550"/>
<path d="M410.81 10.7068V23.9881H407.768V19.071H403.105L398.694 23.9881H394.943L399.962 18.9442C397.038 18.5218 395.577 17.17 395.577 14.8889C395.577 12.1008 397.731 10.7068 402.04 10.7068H410.81ZM402.268 17.094H407.768V12.9119H402.268C399.835 12.9119 398.618 13.6132 398.618 15.0156C398.618 16.4012 399.835 17.094 402.268 17.094Z" fill="#3E4550"/>
<path d="M163.947 23.9881H159.79L151.528 16.2829H147.194V23.9881H144V6.24595H147.194V13.799H151.477L159.334 6.24595H163.212L154.037 14.8382L163.947 23.9881Z" stroke="#3E4550" mask="url(#path-1-outside-1_415_605)"/>
<path d="M177.184 17.094C178.705 17.2461 179.837 17.5756 180.58 18.0825C181.324 18.5894 181.696 19.3413 181.696 20.3383C181.696 21.3859 181.239 22.2561 180.327 22.9489C179.431 23.6417 177.86 23.9881 175.613 23.9881H166.235V10.7068H175.207C177.252 10.7068 178.747 11.0194 179.693 11.6446C180.64 12.2529 181.113 13.0555 181.113 14.0525C181.113 15.7253 179.803 16.7391 177.184 17.094ZM169.276 12.8612V16.2829H174.827C176.99 16.2829 178.071 15.7084 178.071 14.5594C178.071 13.4273 176.931 12.8612 174.65 12.8612H169.276ZM175.131 21.8337C177.48 21.8337 178.654 21.2169 178.654 19.9834C178.654 19.3751 178.367 18.9189 177.792 18.6147C177.235 18.3106 176.289 18.1585 174.954 18.1585H169.276V21.8337H175.131Z" stroke="#3E4550" mask="url(#path-1-outside-1_415_605)"/>
<path d="M192.003 10.4027C194.453 10.4196 196.312 10.9011 197.579 11.8474C198.863 12.7936 199.505 14.1877 199.505 16.0295V23.9881H196.717V21.0479C195.382 23.2108 192.991 24.2922 189.544 24.2922C187.533 24.2922 186.03 23.9374 185.033 23.2277C184.036 22.518 183.537 21.5802 183.537 20.4143C183.537 19.147 184.137 18.1923 185.337 17.5502C186.553 16.9081 188.395 16.511 190.862 16.359L196.464 15.9788V15.4212C196.464 14.5594 196.092 13.8582 195.348 13.3175C194.605 12.7767 193.49 12.5064 192.003 12.5064C189.333 12.5064 187.787 13.233 187.364 14.6861H184.5C184.686 13.1992 185.463 12.1093 186.832 11.4165C188.201 10.7237 189.924 10.3858 192.003 10.4027ZM190.33 22.1885C192.222 22.1885 193.718 21.8252 194.816 21.0986C195.914 20.3721 196.464 19.4681 196.464 18.3866V17.7783L191.217 18.1078C188.108 18.3106 186.553 19.0287 186.553 20.2622C186.553 20.8367 186.866 21.3014 187.491 21.6562C188.116 22.0111 189.063 22.1885 190.33 22.1885Z" stroke="#3E4550" mask="url(#path-1-outside-1_415_605)"/>
<path d="M212.332 10.4027C214.664 10.4027 216.54 11.0194 217.959 12.2529C219.396 13.4864 220.114 15.1846 220.114 17.3474C220.114 19.5103 219.396 21.2085 217.959 22.442C216.54 23.6755 214.664 24.2922 212.332 24.2922C209.375 24.2922 207.263 23.346 205.996 21.4535V29.0572H202.955V10.7068H205.743V13.6469C206.925 11.4841 209.122 10.4027 212.332 10.4027ZM211.471 21.9604C213.194 21.9604 214.563 21.538 215.577 20.6931C216.591 19.8482 217.098 18.733 217.098 17.3474C217.098 15.9619 216.591 14.8467 215.577 14.0018C214.563 13.1569 213.194 12.7345 211.471 12.7345C209.73 12.7345 208.353 13.1569 207.339 14.0018C206.342 14.8467 205.844 15.9619 205.844 17.3474C205.844 18.733 206.342 19.8482 207.339 20.6931C208.353 21.538 209.73 21.9604 211.471 21.9604Z" stroke="#3E4550" mask="url(#path-1-outside-1_415_605)"/>
<path d="M220.789 13.2161V10.7068H236.478V13.2161H230.167V23.9881H227.126V13.2161H220.789Z" stroke="#3E4550" mask="url(#path-1-outside-1_415_605)"/>
<path d="M250.645 10.7068H255.106V23.9881H252.166V12.7091L243.219 23.9881H238.783V10.7068H241.698V21.9857L250.645 10.7068Z" stroke="#3E4550" mask="url(#path-1-outside-1_415_605)"/>
<path d="M268.056 10.4027C270.388 10.4027 272.263 11.0194 273.683 12.2529C275.119 13.4864 275.837 15.1846 275.837 17.3474C275.837 19.5103 275.119 21.2085 273.683 22.442C272.263 23.6755 270.388 24.2922 268.056 24.2922C265.099 24.2922 262.987 23.346 261.719 21.4535V29.0572H258.678V10.7068H261.466V13.6469C262.649 11.4841 264.845 10.4027 268.056 10.4027ZM267.194 21.9604C268.918 21.9604 270.286 21.538 271.3 20.6931C272.314 19.8482 272.821 18.733 272.821 17.3474C272.821 15.9619 272.314 14.8467 271.3 14.0018C270.286 13.1569 268.918 12.7345 267.194 12.7345C265.454 12.7345 264.077 13.1569 263.063 14.0018C262.066 14.8467 261.567 15.9619 261.567 17.3474C261.567 18.733 262.066 19.8482 263.063 20.6931C264.077 21.538 265.454 21.9604 267.194 21.9604Z" stroke="#3E4550" mask="url(#path-1-outside-1_415_605)"/>
<path d="M280.193 22.4673C278.605 21.2338 277.811 19.5272 277.811 17.3474C277.811 15.1677 278.605 13.4695 280.193 12.2529C281.799 11.0194 283.936 10.4027 286.606 10.4027C289.276 10.4027 291.405 11.0194 292.993 12.2529C294.598 13.4695 295.401 15.1677 295.401 17.3474C295.401 19.5272 294.598 21.2338 292.993 22.4673C291.405 23.6839 289.276 24.2922 286.606 24.2922C283.936 24.2922 281.799 23.6839 280.193 22.4673ZM282.373 14.0018C281.342 14.8467 280.827 15.9619 280.827 17.3474C280.827 18.733 281.342 19.8482 282.373 20.6931C283.404 21.538 284.815 21.9604 286.606 21.9604C288.38 21.9604 289.783 21.538 290.813 20.6931C291.861 19.8313 292.385 18.7161 292.385 17.3474C292.385 15.9788 291.861 14.872 290.813 14.0271C289.783 13.1654 288.38 12.7345 286.606 12.7345C284.815 12.7345 283.404 13.1569 282.373 14.0018Z" stroke="#3E4550" mask="url(#path-1-outside-1_415_605)"/>
<path d="M298.195 23.9881V10.7068H310.462V13.2161H301.236V23.9881H298.195Z" stroke="#3E4550" mask="url(#path-1-outside-1_415_605)"/>
<path d="M322.269 10.4027C324.601 10.4027 326.477 11.0194 327.896 12.2529C329.332 13.4864 330.05 15.1846 330.05 17.3474C330.05 19.5103 329.332 21.2085 327.896 22.442C326.477 23.6755 324.601 24.2922 322.269 24.2922C319.312 24.2922 317.2 23.346 315.933 21.4535V29.0572H312.891V10.7068H315.679V13.6469C316.862 11.4841 319.059 10.4027 322.269 10.4027ZM321.408 21.9604C323.131 21.9604 324.5 21.538 325.514 20.6931C326.527 19.8482 327.034 18.733 327.034 17.3474C327.034 15.9619 326.527 14.8467 325.514 14.0018C324.5 13.1569 323.131 12.7345 321.408 12.7345C319.667 12.7345 318.29 13.1569 317.276 14.0018C316.279 14.8467 315.781 15.9619 315.781 17.3474C315.781 18.733 316.279 19.8482 317.276 20.6931C318.29 21.538 319.667 21.9604 321.408 21.9604Z" stroke="#3E4550" mask="url(#path-1-outside-1_415_605)"/>
<path d="M340.392 10.4027C342.842 10.4196 344.701 10.9011 345.968 11.8474C347.252 12.7936 347.894 14.1877 347.894 16.0295V23.9881H345.106V21.0479C343.771 23.2108 341.38 24.2922 337.933 24.2922C335.923 24.2922 334.419 23.9374 333.422 23.2277C332.425 22.518 331.926 21.5802 331.926 20.4143C331.926 19.147 332.526 18.1923 333.726 17.5502C334.943 16.9081 336.784 16.511 339.251 16.359L344.853 15.9788V15.4212C344.853 14.5594 344.481 13.8582 343.738 13.3175C342.994 12.7767 341.879 12.5064 340.392 12.5064C337.722 12.5064 336.176 13.233 335.754 14.6861H332.89C333.075 13.1992 333.853 12.1093 335.221 11.4165C336.59 10.7237 338.314 10.3858 340.392 10.4027ZM338.719 22.1885C340.612 22.1885 342.107 21.8252 343.205 21.0986C344.304 20.3721 344.853 19.4681 344.853 18.3866V17.7783L339.606 18.1078C336.497 18.3106 334.943 19.0287 334.943 20.2622C334.943 20.8367 335.255 21.3014 335.88 21.6562C336.506 22.0111 337.452 22.1885 338.719 22.1885Z" stroke="#3E4550" mask="url(#path-1-outside-1_415_605)"/>
<path d="M364.27 10.4027C367.193 10.4027 369.432 11.011 370.987 12.2276C372.541 13.4442 373.319 15.1508 373.319 17.3474C373.319 19.5441 372.541 21.2507 370.987 22.4673C369.432 23.6839 367.193 24.2922 364.27 24.2922H363.434V29.0572H360.468V24.2922H359.607C356.683 24.2922 354.444 23.6839 352.89 22.4673C351.352 21.2507 350.583 19.5441 350.583 17.3474C350.583 15.1508 351.352 13.4442 352.89 12.2276C354.444 11.011 356.683 10.4027 359.607 10.4027H360.468V5.3335H363.434V10.4027H364.27ZM359.708 21.9604H360.468V12.7345H359.708C357.663 12.7345 356.126 13.14 355.095 13.9511C354.064 14.7453 353.549 15.8774 353.549 17.3474C353.549 18.8175 354.064 19.9581 355.095 20.7691C356.126 21.5633 357.663 21.9604 359.708 21.9604ZM364.169 21.9604C366.213 21.9604 367.751 21.5633 368.782 20.7691C369.812 19.9581 370.328 18.8175 370.328 17.3474C370.328 15.8774 369.812 14.7453 368.782 13.9511C367.751 13.14 366.213 12.7345 364.169 12.7345H363.434V21.9604H364.169Z" stroke="#3E4550" mask="url(#path-1-outside-1_415_605)"/>
<path d="M388.026 10.7068H392.487V23.9881H389.547V12.7091L380.599 23.9881H376.164V10.7068H379.079V21.9857L388.026 10.7068Z" stroke="#3E4550" mask="url(#path-1-outside-1_415_605)"/>
<path d="M410.81 10.7068V23.9881H407.768V19.071H403.105L398.694 23.9881H394.943L399.962 18.9442C397.038 18.5218 395.577 17.17 395.577 14.8889C395.577 12.1008 397.731 10.7068 402.04 10.7068H410.81ZM402.268 17.094H407.768V12.9119H402.268C399.835 12.9119 398.618 13.6132 398.618 15.0156C398.618 16.4012 399.835 17.094 402.268 17.094Z" stroke="#3E4550" mask="url(#path-1-outside-1_415_605)"/>
<path d="M123.084 5.08398H122.913L122.851 5.24359L114.434 26.9456L114.302 27.286H114.667H117.693H117.864L117.926 27.1264L126.342 5.42438L126.474 5.08398H126.109H123.084Z" fill="#3E4550" stroke="#3E4550" stroke-width="0.5"/>
<path d="M414.667 0.983496H414.317V1.3335V9.3335V9.6835H414.667H422.667H423.017V9.3335V1.3335V0.983496H422.667H414.667ZM416.617 7.3835V3.2835H420.717V7.3835H416.617Z" fill="#3E4550" stroke="#3E4550" stroke-width="0.7"/>
<path d="M60.5438 0.655834L52.714 13.2347L44.9947 0.655834H37.3849V31.331H44.3327V12.3522L52.493 24.4898H52.934L60.9848 12.1311V31.331H68.0421V0.655834H60.5438Z" fill="#E30427"/>
<path d="M93.8471 0.655834L81.9376 13.5654V0.655834H74.8794V31.331H81.9376V21.9517L85.2458 18.6416L94.3986 31.331H103L89.9875 13.676L102.559 0.655834H93.8471Z" fill="#E30427"/>
<path d="M14.9985 20.9661H23.7104C23.1589 22.1803 22.2768 23.0629 21.0633 23.8349C19.6298 24.7174 17.9752 25.1587 16.1006 25.1587C13.564 25.1587 11.4694 24.2762 9.92536 22.7312C8.38132 21.0757 7.60976 18.8693 7.60976 16.2206C7.60976 13.572 8.38132 11.3656 9.92536 9.71009C11.4694 8.05458 13.565 7.17201 15.9911 7.17201C17.7552 7.17201 19.4097 7.61329 20.7328 8.49586C21.7253 9.15825 22.4969 9.93026 23.0484 10.8128H30.9887C30.4372 8.93714 29.5551 7.17107 28.3416 5.62705C26.908 3.86192 25.0335 2.42752 22.8274 1.4344C20.6223 0.441282 18.3057 0 15.7701 0C13.565 0 11.4694 0.441284 9.48434 1.21329C7.49927 1.9853 5.84473 3.19953 4.52166 4.52338C3.19859 5.95778 1.98507 7.61329 1.21352 9.59953C0.441959 11.5858 0 13.6826 0 15.9995C0 18.3165 0.441022 20.4133 1.21352 22.3995C1.98507 24.3858 3.19859 26.0413 4.52166 27.4757C5.95522 28.9101 7.60976 30.0138 9.59483 30.7858C11.5799 31.5578 13.6755 32 15.8806 32C18.8582 32 21.6148 31.3376 24.0409 29.7936C26.3565 28.3592 28.3416 26.3729 29.6647 23.8349C30.9877 21.2968 31.6497 18.428 31.6497 15.2285V14.7872H15.109L14.9985 20.9661Z" fill="#E30427"/>
</svg>
