<svg width="12" height="16" viewBox="0 0 12 16" fill="none" xmlns="http://www.w3.org/2000/svg">
<path d="M3.20841 12.7915H8.79171V11.7082H3.20841V12.7915ZM3.20841 9.79146H8.79171V8.70817H3.20841V9.79146ZM1.75058 15.5831C1.37525 15.5831 1.05911 15.4536 0.802165 15.1946C0.54522 14.9356 0.416748 14.6185 0.416748 14.2434V1.75625C0.416748 1.38114 0.546262 1.06407 0.80529 0.805046C1.06432 0.546018 1.38139 0.416504 1.7565 0.416504H8.20841L11.5834 3.79146V14.2434C11.5834 14.6185 11.4538 14.9356 11.1946 15.1946C10.9354 15.4536 10.6181 15.5831 10.2428 15.5831H1.75058ZM7.41675 4.58313H10.5001L7.41675 1.49982V4.58313Z" fill="#3E4550"/>
</svg>
