<svg width="20" height="20" viewBox="0 0 20 20" fill="none" xmlns="http://www.w3.org/2000/svg">
<path d="M17.5718 19.5368L11.1729 13.1379C10.6823 13.5002 10.1144 13.7886 9.46911 14.0031C8.82381 14.2176 8.12979 14.3248 7.38704 14.3248C5.48559 14.3248 3.87272 13.6627 2.54844 12.3384C1.22415 11.0141 0.562012 9.40128 0.562012 7.49983C0.562012 5.59838 1.22415 3.98551 2.54844 2.66123C3.87272 1.33695 5.48559 0.674805 7.38704 0.674805C9.28849 0.674805 10.9014 1.33695 12.2256 2.66123C13.5499 3.98551 14.2121 5.59838 14.2121 7.49983C14.2121 8.252 14.1048 8.94602 13.8903 9.5819C13.6758 10.2178 13.3874 10.7763 13.0251 11.2574L19.4382 17.6846L17.5718 19.5368ZM7.38704 11.6748C8.55225 11.6748 9.53939 11.2703 10.3484 10.4612C11.1575 9.65217 11.562 8.66505 11.562 7.49983C11.562 6.33461 11.1575 5.34748 10.3484 4.53843C9.53939 3.72938 8.55225 3.32485 7.38704 3.32485C6.22182 3.32485 5.23469 3.72938 4.42564 4.53843C3.61659 5.34748 3.21206 6.33461 3.21206 7.49983C3.21206 8.66505 3.61659 9.65218 4.42564 10.4612C5.23469 11.2703 6.22182 11.6748 7.38704 11.6748Z" fill="#A6A6A6"/>
</svg>
