<svg width="24" height="24" viewBox="0 0 24 24" fill="none" xmlns="http://www.w3.org/2000/svg">
<mask id="mask0_400_361" style="mask-type:alpha" maskUnits="userSpaceOnUse" x="0" y="0" width="24" height="24">
<rect width="24" height="24" fill="#D9D9D9"/>
</mask>
<g mask="url(#mask0_400_361)">
<path d="M2.0625 19.9008L11.9971 3.40088L21.9316 19.9008H2.0625ZM11.9918 17.2085C12.1908 17.2085 12.3594 17.1412 12.4975 17.0065C12.6357 16.8719 12.7047 16.7051 12.7047 16.5061C12.7047 16.307 12.6374 16.1385 12.5028 16.0003C12.3682 15.8622 12.2013 15.7931 12.0023 15.7931C11.8033 15.7931 11.6347 15.8604 11.4966 15.9951C11.3584 16.1297 11.2894 16.2965 11.2894 16.4955C11.2894 16.6946 11.3567 16.8631 11.4913 17.0013C11.6259 17.1394 11.7928 17.2085 11.9918 17.2085ZM11.3471 14.5931H12.647V9.79313H11.3471V14.5931Z" fill="#FFD600"/>
<path d="M11.99 17.2073C12.189 17.2073 12.3576 17.14 12.4957 17.0054C12.6339 16.8708 12.7029 16.704 12.7029 16.5049C12.7029 16.3059 12.6356 16.1373 12.501 15.9992C12.3664 15.8611 12.1996 15.792 12.0005 15.792C11.8015 15.792 11.6329 15.8593 11.4948 15.9939C11.3567 16.1286 11.2876 16.2954 11.2876 16.4944C11.2876 16.6934 11.3549 16.862 11.4895 17.0001C11.6242 17.1383 11.791 17.2073 11.99 17.2073ZM11.3453 14.592H12.6452V9.79199H11.3453V14.592Z" fill="#3E4550"/>
</g>
</svg>
