<svg width="22" height="19" viewBox="0 0 22 19" fill="none" xmlns="http://www.w3.org/2000/svg">
<path d="M18.7621 18.8691L14.716 14.8537C14.2031 15.0435 13.6349 15.1986 13.0112 15.3191C12.3874 15.4396 11.7172 15.4999 11.0006 15.4999C8.65058 15.4999 6.53713 14.8537 4.66021 13.5614C2.7833 12.2691 1.40958 10.582 0.539062 8.49992C0.908296 7.61659 1.38522 6.79255 1.96984 6.0278C2.55445 5.26306 3.19805 4.59993 3.90061 4.0384L1.13136 1.2384L2.18521 0.18457L19.8159 17.8153L18.7621 18.8691ZM11.0006 12.5768C11.2095 12.5768 11.4237 12.5589 11.6429 12.523C11.8621 12.4871 12.057 12.4345 12.2275 12.3653L7.13521 7.27297C7.06598 7.4563 7.01341 7.65599 6.97751 7.87202C6.94161 8.08805 6.92366 8.29735 6.92366 8.49992C6.92366 9.63452 7.3195 10.5977 8.11116 11.3893C8.90283 12.181 9.86596 12.5768 11.0006 12.5768ZM17.9544 13.0845L14.8178 9.97297C14.8961 9.76015 14.9589 9.53195 15.0063 9.28837C15.0537 9.04479 15.0775 8.78197 15.0775 8.49992C15.0775 7.36532 14.6816 6.40219 13.89 5.61052C13.0983 4.81885 12.1352 4.42302 11.0006 4.42302C10.7185 4.42302 10.4589 4.44835 10.2217 4.499C9.98455 4.54963 9.75635 4.62559 9.53714 4.72687L7.03521 2.23457C7.66726 1.98329 8.31277 1.79803 8.97174 1.6788C9.6307 1.55956 10.307 1.49995 11.0006 1.49995C13.3441 1.49995 15.4576 2.1461 17.3409 3.4384C19.2242 4.73071 20.598 6.41789 21.4621 8.49992C21.0915 9.3935 20.613 10.2275 20.0265 11.0018C19.44 11.7762 18.7493 12.4704 17.9544 13.0845ZM13.6852 8.84992L10.6756 5.84992C11.1166 5.76659 11.5329 5.79928 11.9246 5.948C12.3163 6.09671 12.6538 6.31786 12.9371 6.61145C13.2268 6.90505 13.439 7.24928 13.5736 7.64415C13.7083 8.03901 13.7454 8.44094 13.6852 8.84992Z" fill="#A6A6A6"/>
</svg>
