<svg width="37" height="36" viewBox="0 0 37 36" fill="none" xmlns="http://www.w3.org/2000/svg">
<g clip-path="url(#clip0_417_9211)">
<path d="M27.86 0L9.14 0C4.36826 0 0.5 3.86826 0.5 8.64L0.5 27.36C0.5 32.1317 4.36826 36 9.14 36H27.86C32.6317 36 36.5 32.1317 36.5 27.36V8.64C36.5 3.86826 32.6317 0 27.86 0Z" fill="url(#paint0_linear_417_9211)"/>
<path d="M13.5796 25.2299L13.9318 25.4387C15.4118 26.317 17.1086 26.7815 18.8389 26.7825H18.8426C24.1566 26.7825 28.4816 22.4585 28.4836 17.1442C28.4844 14.5687 27.4826 12.1472 25.6623 10.3253C23.8419 8.50369 21.4217 7.49981 18.8461 7.49874C13.5281 7.49874 9.20314 11.822 9.20113 17.1363C9.20047 18.9574 9.70984 20.731 10.6751 22.2654L10.9045 22.6301L9.93034 26.1867L13.5796 25.2299ZM7.14551 28.9417L8.7911 22.9329C7.77607 21.1743 7.2421 19.1794 7.24293 17.1358C7.24541 10.7422 12.4486 5.54053 18.8429 5.54053C21.9456 5.54187 24.858 6.74944 27.048 8.94128C29.2379 11.1331 30.4435 14.0466 30.4425 17.1451C30.4398 23.5384 25.2355 28.741 18.8429 28.741C18.8424 28.741 18.8431 28.741 18.8429 28.741H18.8379C16.8966 28.7404 14.9891 28.2534 13.2949 27.3294L7.14551 28.9417Z" fill="white"/>
<path d="M7.64369 17.1413C7.643 19.1139 8.15844 21.0399 9.13855 22.7378L7.5498 28.5385L13.486 26.982C15.1216 27.8733 16.963 28.3438 18.8371 28.3444H18.842C25.0136 28.3444 30.0369 23.3223 30.0396 17.15C30.0408 14.1588 28.8771 11.3466 26.7627 9.23042C24.6488 7.11455 21.8373 5.94867 18.8414 5.94727C12.6695 5.94727 7.64609 10.9687 7.64342 17.1413M18.8418 28.3443H18.8419H18.8418C18.8416 28.3443 18.8415 28.3443 18.8418 28.3443Z" fill="url(#paint1_linear_417_9211)"/>
<path d="M7.24293 17.1381C7.24224 19.1817 7.77621 21.1768 8.79124 22.9352L7.14551 28.9436L13.2947 27.3314C14.989 28.2553 16.8964 28.7422 18.8377 28.743H18.8427C25.2353 28.743 30.4396 23.5404 30.4422 17.1471C30.4433 14.0484 29.2377 11.135 27.0478 8.94325C24.8576 6.75153 21.9455 5.54382 18.8427 5.54248C12.4487 5.54248 7.24542 10.7441 7.24274 17.1378M10.9047 22.6322L10.6751 22.2677C9.70991 20.7331 9.20046 18.9595 9.20113 17.1386C9.20327 11.8246 13.5281 7.50103 18.8461 7.50103C21.4214 7.50203 23.8418 8.50599 25.6623 10.3275C27.4827 12.1492 28.4844 14.5709 28.4837 17.1462C28.4813 22.4604 24.1564 26.7844 18.8424 26.7844H18.8387C17.1084 26.7834 15.4114 26.319 13.9316 25.4408L13.5794 25.232L9.93021 26.1887L10.9047 22.6322ZM18.8427 28.743H18.8428H18.8427C18.8425 28.743 18.8424 28.743 18.8427 28.743Z" fill="url(#paint2_linear_417_9211)"/>
<path fill-rule="evenodd" clip-rule="evenodd" d="M15.9383 12.2908C15.7212 11.8081 15.4926 11.7985 15.2861 11.79C15.1171 11.7827 14.9238 11.7832 14.7307 11.7832C14.5374 11.7832 14.2234 11.8558 13.9578 12.1458C13.6921 12.4359 12.9434 13.137 12.9434 14.563C12.9434 15.989 13.982 17.3669 14.1268 17.5605C14.2717 17.7537 16.1319 20.7736 19.0776 21.9353C21.526 22.9007 22.0242 22.7087 22.5557 22.6603C23.0871 22.6121 24.2704 21.9594 24.5119 21.2826C24.7535 20.6059 24.7535 20.0258 24.6811 19.9047C24.6086 19.7839 24.4153 19.7114 24.1255 19.5665C23.8355 19.4216 22.4106 18.7203 22.145 18.6236C21.8793 18.527 21.6861 18.4788 21.4928 18.7689C21.2996 19.0587 20.7444 19.7114 20.5753 19.9047C20.4062 20.0984 20.2371 20.1225 19.9473 19.9776C19.6574 19.8321 18.7239 19.5264 17.6165 18.5392C16.7548 17.771 16.1732 16.8222 16.0041 16.532C15.835 16.2422 15.986 16.0852 16.1313 15.9407C16.2616 15.8109 16.4213 15.6023 16.5663 15.4331C16.7108 15.2639 16.7591 15.1431 16.8557 14.9498C16.9524 14.7563 16.904 14.5871 16.8316 14.4421C16.7591 14.2971 16.1958 12.8638 15.9381 12.2907" fill="white"/>
</g>
<defs>
<linearGradient id="paint0_linear_417_9211" x1="18.5002" y1="35.9963" x2="18.5002" y2="-0.00378299" gradientUnits="userSpaceOnUse">
<stop stop-color="#20B038"/>
<stop offset="1" stop-color="#60D66A"/>
</linearGradient>
<linearGradient id="paint1_linear_417_9211" x1="18.7948" y1="28.5362" x2="18.7948" y2="5.9449" gradientUnits="userSpaceOnUse">
<stop stop-color="#20B038"/>
<stop offset="1" stop-color="#60D66A"/>
</linearGradient>
<linearGradient id="paint2_linear_417_9211" x1="18.794" y1="28.9443" x2="18.794" y2="5.54318" gradientUnits="userSpaceOnUse">
<stop stop-color="#F9F9F9"/>
<stop offset="1" stop-color="white"/>
</linearGradient>
<clipPath id="clip0_417_9211">
<rect x="0.5" width="36" height="36" rx="8" fill="white"/>
</clipPath>
</defs>
</svg>
