<svg width="651" height="360" viewBox="0 0 651 360" fill="none" xmlns="http://www.w3.org/2000/svg">
<g filter="url(#filter0_b_415_4324)">
<mask id="path-1-inside-1_415_4324" fill="white">
<path fill-rule="evenodd" clip-rule="evenodd" d="M325.385 286.149C292.641 330.92 239.716 360 180 360C80.5887 360 0 279.411 0 180C0 80.5887 80.5887 0 180 0C239.716 0 292.641 29.0798 325.385 73.851C358.129 29.0798 411.054 0 470.77 0C570.182 0 650.77 80.5887 650.77 180C650.77 279.411 570.182 360 470.77 360C411.054 360 358.129 330.92 325.385 286.149Z"/>
</mask>
<path d="M325.385 286.149L326.999 284.968L325.385 282.761L323.771 284.968L325.385 286.149ZM325.385 73.851L323.771 75.0317L325.385 77.2389L326.999 75.0317L325.385 73.851ZM323.771 284.968C291.387 329.247 239.051 358 180 358V362C240.381 362 293.895 332.594 326.999 287.33L323.771 284.968ZM180 358C81.6933 358 2 278.307 2 180H-2C-2 280.516 79.4842 362 180 362V358ZM2 180C2 81.6933 81.6933 2 180 2V-2C79.4842 -2 -2 79.4842 -2 180H2ZM180 2C239.051 2 291.387 30.7532 323.771 75.0317L326.999 72.6703C293.895 27.4063 240.381 -2 180 -2V2ZM326.999 75.0317C359.383 30.7532 411.719 2 470.77 2V-2C410.389 -2 356.875 27.4063 323.771 72.6703L326.999 75.0317ZM470.77 2C569.077 2 648.77 81.6933 648.77 180H652.77C652.77 79.4842 571.286 -2 470.77 -2V2ZM648.77 180C648.77 278.307 569.077 358 470.77 358V362C571.286 362 652.77 280.516 652.77 180H648.77ZM470.77 358C411.719 358 359.383 329.247 326.999 284.968L323.771 287.33C356.875 332.594 410.389 362 470.77 362V358Z" fill="white" mask="url(#path-1-inside-1_415_4324)"/>
</g>
<defs>
<filter id="filter0_b_415_4324" x="-20" y="-20" width="690.771" height="400" filterUnits="userSpaceOnUse" color-interpolation-filters="sRGB">
<feFlood flood-opacity="0" result="BackgroundImageFix"/>
<feGaussianBlur in="BackgroundImageFix" stdDeviation="10"/>
<feComposite in2="SourceAlpha" operator="in" result="effect1_backgroundBlur_415_4324"/>
<feBlend mode="normal" in="SourceGraphic" in2="effect1_backgroundBlur_415_4324" result="shape"/>
</filter>
</defs>
</svg>
