<svg width="12" height="13" viewBox="0 0 12 13" fill="none" xmlns="http://www.w3.org/2000/svg">
<path d="M6.00128 9.82401L2.6103 6.43303L3.38432 5.67503L5.45964 7.75035V0.416992H6.54293V7.75035L8.61824 5.67503L9.39226 6.43303L6.00128 9.82401ZM1.7518 12.5836C1.37647 12.5836 1.06033 12.4541 0.803385 12.1951C0.546441 11.936 0.417969 11.619 0.417969 11.2439V9.98428H1.50128V11.2439C1.50128 11.308 1.52799 11.3667 1.58141 11.4202C1.63484 11.4736 1.69361 11.5003 1.75772 11.5003H10.2448C10.309 11.5003 10.3677 11.4736 10.4212 11.4202C10.4746 11.3667 10.5013 11.308 10.5013 11.2439V9.98428H11.5846V11.2439C11.5846 11.619 11.455 11.936 11.1958 12.1951C10.9366 12.4541 10.6193 12.5836 10.244 12.5836H1.7518Z" fill="#808080"/>
</svg>
