<svg width="16" height="16" viewBox="0 0 16 16" fill="none" xmlns="http://www.w3.org/2000/svg">
<path d="M1.75381 15.0833C1.3787 15.0833 1.06163 14.9537 0.802604 14.6947C0.543576 14.4357 0.414062 14.1186 0.414062 13.7435V3.2564C0.414062 2.88128 0.543576 2.56421 0.802604 2.30519C1.06163 2.04616 1.3787 1.91665 1.75381 1.91665H7.9541L6.87079 2.99996H1.75381C1.6897 2.99996 1.63093 3.02667 1.5775 3.08008C1.52408 3.13351 1.49737 3.19229 1.49737 3.2564V13.7435C1.49737 13.8076 1.52408 13.8664 1.5775 13.9198C1.63093 13.9732 1.6897 14 1.75381 14H12.2409C12.305 14 12.3638 13.9732 12.4172 13.9198C12.4707 13.8664 12.4974 13.8076 12.4974 13.7435V8.67621L13.5807 7.57208V13.7435C13.5807 14.1186 13.4512 14.4357 13.1921 14.6947C12.9331 14.9538 12.616 15.0833 12.2409 15.0833L1.75381 15.0833ZM10.9189 1.97594L11.7137 2.77079L6.49738 7.93746V8.99996H7.55988L12.7634 3.83329L13.5006 4.59929L8.01658 10.0833H5.41406V7.50158L10.9189 1.97594ZM13.5006 4.59929L10.9189 1.97594L12.5134 0.381396C12.7691 0.127132 13.08 0 13.4463 0C13.8126 0 14.1256 0.129805 14.3852 0.389416L15.1107 1.1044C15.3738 1.36917 15.5054 1.68485 15.5054 2.05144C15.5054 2.41801 15.3729 2.73151 15.1079 2.99194L13.5006 4.59929Z" fill="#808080"/>
</svg>
