<svg width="30" height="35" viewBox="0 0 30 35" fill="none" xmlns="http://www.w3.org/2000/svg">
<path d="M2.77775 35C2.01386 35 1.35993 34.728 0.815958 34.184C0.271986 33.6401 0 32.9861 0 32.2223V14.4444C0 13.6805 0.271986 13.0266 0.815958 12.4826C1.35993 11.9387 2.01386 11.6667 2.77775 11.6667H10.8334V14.4444H2.77775V32.2223H27.2222V14.4444H19.1666V11.6667H27.2222C27.9861 11.6667 28.6401 11.9387 29.184 12.4826C29.728 13.0266 30 13.6805 30 14.4444V32.2223C30 32.9861 29.728 33.6401 29.184 34.184C28.6401 34.728 27.9861 35 27.2222 35H2.77775ZM15 26.5833L8.27779 19.8611L10.25 17.8889L13.6111 21.2361V0H16.3889V21.2361L19.75 17.8889L21.7222 19.8611L15 26.5833Z" fill="#A6A6A6"/>
</svg>
