<svg width="16" height="16" viewBox="0 0 16 16" fill="none" xmlns="http://www.w3.org/2000/svg">
<path d="M7.25 15.5V7.09993L4.78462 9.5653L3.7308 8.4807L7.99997 4.21152L12.2692 8.4807L11.2153 9.5653L8.74995 7.09993V15.5H7.25ZM0.5 5.0192V2.3077C0.5 1.80257 0.675 1.375 1.025 1.025C1.375 0.675 1.80257 0.5 2.3077 0.5H13.6922C14.1974 0.5 14.625 0.675 14.975 1.025C15.325 1.375 15.5 1.80257 15.5 2.3077V5.0192H14V2.3077C14 2.23077 13.9679 2.16024 13.9038 2.09613C13.8397 2.03203 13.7692 1.99998 13.6922 1.99998H2.3077C2.23077 1.99998 2.16024 2.03203 2.09612 2.09613C2.03202 2.16024 1.99997 2.23077 1.99997 2.3077V5.0192H0.5Z" fill="#A6A6A6"/>
</svg>
